REM DIRINDEX 1\2\6,1\2\7,1\2\8,1\2\9,1\3\10,1\3\11,1\4\12,1\4\13,1\4\14,1\5\15,1\5\16,1\5\17
REM DIRNAME folder01,folder02,folder03,folder04,folder05,folder06,folder07,folder08,folder09,folder10,folder11,folder12,folder13,folder14,folder15,folder16,folder17
TITLE ""
FILE "1400_2_sec14_1366_1383.mp3" MP3
  TRACK 01 AUDIO
    TITLE "0:"
    INDEX 01 00:00:00
  TRACK 02 AUDIO
    TITLE "13:cjc029_4354"
    INDEX 01 00:00:19
  TRACK 03 AUDIO
    TITLE "0:"
    INDEX 01 00:01:71
  TRACK 04 AUDIO
    TITLE "14:cjc029_4355"
    INDEX 01 00:02:00
  TRACK 05 AUDIO
    TITLE "0:"
    INDEX 01 00:03:17
  TRACK 06 AUDIO
    TITLE "13:cjc029_4356"
    INDEX 01 00:03:74
  TRACK 07 AUDIO
    TITLE "0:"
    INDEX 01 00:05:59
  TRACK 08 AUDIO
    TITLE "14:cjc029_4357"
    INDEX 01 00:05:65
  TRACK 09 AUDIO
    TITLE "0:"
    INDEX 01 00:07:29
  TRACK 10 AUDIO
    TITLE "13:cjc029_4358"
    INDEX 01 00:08:09
  TRACK 11 AUDIO
    TITLE "0:"
    INDEX 01 00:09:26
  TRACK 12 AUDIO
    TITLE "14:cjc029_4359"
    INDEX 01 00:09:30
  TRACK 13 AUDIO
    TITLE "0:"
    INDEX 01 00:10:35
  TRACK 14 AUDIO
    TITLE "13:cjc029_4360"
    INDEX 01 00:11:17
  TRACK 15 AUDIO
    TITLE "0:"
    INDEX 01 00:12:52
  TRACK 16 AUDIO
    TITLE "14:cjc029_4361"
    INDEX 01 00:12:58
  TRACK 17 AUDIO
    TITLE "0:"
    INDEX 01 00:14:17
  TRACK 18 AUDIO
    TITLE "13:cjc029_4362"
    INDEX 01 00:14:72
  TRACK 19 AUDIO
    TITLE "0:"
    INDEX 01 00:16:16
  TRACK 20 AUDIO
    TITLE "14:cjc029_4363"
    INDEX 01 00:16:20
  TRACK 21 AUDIO
    TITLE "0:"
    INDEX 01 00:19:50
  TRACK 22 AUDIO
    TITLE "13:cjc029_4364"
    INDEX 01 00:20:30
  TRACK 23 AUDIO
    TITLE "0:"
    INDEX 01 00:21:31
  TRACK 24 AUDIO
    TITLE "14:cjc029_4365"
    INDEX 01 00:21:37
  TRACK 25 AUDIO
    TITLE "0:"
    INDEX 01 00:24:02
  TRACK 26 AUDIO
    TITLE "13:cjc029_4366"
    INDEX 01 00:24:59
  TRACK 27 AUDIO
    TITLE "0:"
    INDEX 01 00:26:07
  TRACK 28 AUDIO
    TITLE "14:cjc029_4367"
    INDEX 01 00:26:13
  TRACK 29 AUDIO
    TITLE "0:"
    INDEX 01 00:28:74
  TRACK 30 AUDIO
    TITLE "13:cjc029_4368"
    INDEX 01 00:29:66
  TRACK 31 AUDIO
    TITLE "0:"
    INDEX 01 00:30:67
  TRACK 32 AUDIO
    TITLE "14:cjc029_4369"
    INDEX 01 00:30:71
  TRACK 33 AUDIO
    TITLE "0:"
    INDEX 01 00:33:19
  TRACK 34 AUDIO
    TITLE "13:cjc029_4370"
    INDEX 01 00:33:71
  TRACK 35 AUDIO
    TITLE "0:"
    INDEX 01 00:35:33
  TRACK 36 AUDIO
    TITLE "14:cjc029_4371"
    INDEX 01 00:35:37
  TRACK 37 AUDIO
    TITLE "0:"
    INDEX 01 00:39:64
  TRACK 38 AUDIO
    TITLE "12:cjc029_4372"
    INDEX 01 00:41:40
  TRACK 39 AUDIO
    TITLE "0:"
    INDEX 01 00:43:09
  TRACK 40 AUDIO
    TITLE "13:cjc029_4373"
    INDEX 01 00:44:09
  TRACK 41 AUDIO
    TITLE "0:"
    INDEX 01 00:45:32
  TRACK 42 AUDIO
    TITLE "14:cjc029_4374"
    INDEX 01 00:45:41
  TRACK 43 AUDIO
    TITLE "0:"
    INDEX 01 00:47:74
  TRACK 44 AUDIO
    TITLE "13:cjc029_4375"
    INDEX 01 00:48:57
  TRACK 45 AUDIO
    TITLE "0:"
    INDEX 01 00:50:13
  TRACK 46 AUDIO
    TITLE "14:cjc029_4376"
    INDEX 01 00:50:17
  TRACK 47 AUDIO
    TITLE "0:"
    INDEX 01 00:52:73
  TRACK 48 AUDIO
    TITLE "13:cjc029_4377"
    INDEX 01 00:53:57
  TRACK 49 AUDIO
    TITLE "0:"
    INDEX 01 00:55:04
  TRACK 50 AUDIO
    TITLE "14:cjc029_4378"
    INDEX 01 00:55:12
  TRACK 51 AUDIO
    TITLE "0:"
    INDEX 01 00:56:43
  TRACK 52 AUDIO
    TITLE "13:cjc029_4379"
    INDEX 01 00:57:23
  TRACK 53 AUDIO
    TITLE "0:"
    INDEX 01 00:58:34
  TRACK 54 AUDIO
    TITLE "14:cjc029_4380"
    INDEX 01 00:58:42
  TRACK 55 AUDIO
    TITLE "0:"
    INDEX 01 01:01:19
  TRACK 56 AUDIO
    TITLE "13:cjc029_4381"
    INDEX 01 01:02:01
  TRACK 57 AUDIO
    TITLE "0:"
    INDEX 01 01:03:26
  TRACK 58 AUDIO
    TITLE "14:cjc029_4382"
    INDEX 01 01:03:31
  TRACK 59 AUDIO
    TITLE "0:"
    INDEX 01 01:06:14
  TRACK 60 AUDIO
    TITLE "13:cjc029_4383"
    INDEX 01 01:06:69
  TRACK 61 AUDIO
    TITLE "0:"
    INDEX 01 01:08:19
  TRACK 62 AUDIO
    TITLE "14:cjc029_4384"
    INDEX 01 01:08:23
  TRACK 63 AUDIO
    TITLE "0:"
    INDEX 01 01:12:68
  TRACK 64 AUDIO
    TITLE "13:cjc029_4385"
    INDEX 01 01:13:59
  TRACK 65 AUDIO
    TITLE "0:"
    INDEX 01 01:14:65
  TRACK 66 AUDIO
    TITLE "14:cjc029_4386"
    INDEX 01 01:14:72
  TRACK 67 AUDIO
    TITLE "0:"
    INDEX 01 01:17:41
  TRACK 68 AUDIO
    TITLE "13:cjc029_4387"
    INDEX 01 01:18:21
  TRACK 69 AUDIO
    TITLE "0:"
    INDEX 01 01:19:46
  TRACK 70 AUDIO
    TITLE "14:cjc029_4388"
    INDEX 01 01:19:50
  TRACK 71 AUDIO
    TITLE "0:"
    INDEX 01 01:20:61
  TRACK 72 AUDIO
    TITLE "13:cjc029_4389"
    INDEX 01 01:21:45
  TRACK 73 AUDIO
    TITLE "0:"
    INDEX 01 01:22:64
  TRACK 74 AUDIO
    TITLE "14:cjc029_4390"
    INDEX 01 01:22:68
  TRACK 75 AUDIO
    TITLE "0:"
    INDEX 01 01:27:04
